<svg width="24" height="24" viewBox="0 0 24 24" fill="none" xmlns="http://www.w3.org/2000/svg">
<path fill-rule="evenodd" clip-rule="evenodd" d="M6.55531 17.4447C6.28189 17.1714 6.28186 16.7282 6.55522 16.4549L16.4547 6.55535C16.7281 6.28198 17.1713 6.28198 17.4447 6.55528C17.7182 6.82857 17.7182 7.27179 17.4448 7.54516L7.54534 17.4446C7.27197 17.718 6.82873 17.718 6.55531 17.4447Z" fill="white"/>
<path fill-rule="evenodd" clip-rule="evenodd" d="M6.495 6.49487C6.76842 6.22155 7.21167 6.2216 7.48504 6.49496L17.3845 16.3945C17.6579 16.6678 17.6579 17.111 17.3844 17.3843C17.111 17.6576 16.6678 17.6576 16.3944 17.3843L6.49492 7.48474C6.22155 7.21137 6.22159 6.7682 6.495 6.49487Z" fill="white"/>
</svg>
