<svg width="252" height="30" viewBox="0 0 252 30" fill="none" xmlns="http://www.w3.org/2000/svg">
<path d="M0.08 27.668C0.848 27.668 1.4 27.548 1.736 27.308C2.072 27.068 2.24 26.672 2.24 26.12V4.88C2.24 4.328 2.072 3.932 1.736 3.692C1.4 3.452 0.848 3.332 0.08 3.332V2H7.172L12.464 21.836L17.504 2H24.416V3.332C23.6 3.332 23.036 3.452 22.724 3.692C22.412 3.908 22.256 4.304 22.256 4.88V26.12C22.256 26.672 22.424 27.068 22.76 27.308C23.096 27.548 23.648 27.668 24.416 27.668V29H16.136V27.668C16.904 27.668 17.456 27.548 17.792 27.308C18.128 27.068 18.296 26.672 18.296 26.12V5.456L12.248 29H10.592L3.932 5.924V26.12C3.932 26.672 4.1 27.068 4.436 27.308C4.772 27.548 5.324 27.668 6.092 27.668V29H0.08V27.668ZM29.3598 26.084C29.2638 26.588 29.3958 26.984 29.7558 27.272C30.1398 27.536 30.7278 27.668 31.5198 27.668V29H25.5078V27.668C26.2038 27.668 26.7198 27.548 27.0558 27.308C27.3918 27.068 27.6198 26.66 27.7398 26.084L33.1398 1.496H34.8678L40.4478 26.156C40.5678 26.756 40.7718 27.164 41.0598 27.38C41.3718 27.572 41.8878 27.668 42.6078 27.668V29H34.2558V27.668C35.1198 27.668 35.7198 27.56 36.0558 27.344C36.4158 27.104 36.5358 26.72 36.4158 26.192L35.6598 22.556H30.1158L29.3598 26.084ZM30.4398 21.116H35.3358L32.9598 9.632L30.4398 21.116ZM43.7792 27.668C44.5472 27.668 45.0992 27.548 45.4352 27.308C45.7712 27.068 45.9392 26.672 45.9392 26.12V4.88C45.9392 4.328 45.7712 3.932 45.4352 3.692C45.0992 3.452 44.5472 3.332 43.7792 3.332V2H52.1312V3.332C51.3632 3.332 50.8112 3.452 50.4752 3.692C50.1392 3.932 49.9712 4.328 49.9712 4.88V26.12C49.9712 26.672 50.1392 27.068 50.4752 27.308C50.8112 27.548 51.3632 27.668 52.1312 27.668V29H43.7792V27.668ZM60.7709 3.08C59.9549 3.08 59.2349 3.392 58.6109 4.016C58.0109 4.616 57.7109 5.336 57.7109 6.176C57.7109 6.848 57.8669 7.52 58.1789 8.192C58.5149 8.84 59.0549 9.584 59.7989 10.424L63.4349 14.672C64.4669 15.872 65.2589 16.916 65.8109 17.804C66.3869 18.668 66.7829 19.508 66.9989 20.324C67.2389 21.116 67.3589 22.004 67.3589 22.988C67.3589 24.164 67.0589 25.232 66.4589 26.192C65.8589 27.152 65.0549 27.92 64.0469 28.496C63.0389 29.072 61.9229 29.36 60.6989 29.36C59.8109 29.36 59.0909 29.276 58.5389 29.108C57.9869 28.94 57.5429 28.772 57.2069 28.604C56.8949 28.436 56.6189 28.352 56.3789 28.352C56.1389 28.352 55.9109 28.424 55.6949 28.568C55.4789 28.688 55.3469 28.832 55.2989 29H54.0389V21.368H55.2629C55.5989 23.288 56.1989 24.8 57.0629 25.904C57.9269 26.984 58.9349 27.524 60.0869 27.524C61.0949 27.524 61.8869 27.188 62.4629 26.516C63.0629 25.844 63.3629 24.932 63.3629 23.78C63.3629 22.844 63.1349 21.908 62.6789 20.972C62.2229 20.012 61.4909 18.956 60.4829 17.804L57.4589 14.312C56.2109 12.848 55.3349 11.612 54.8309 10.604C54.3269 9.572 54.0749 8.48 54.0749 7.328C54.0749 6.32 54.3749 5.384 54.9749 4.52C55.5749 3.656 56.3549 2.96 57.3149 2.432C58.2989 1.904 59.3429 1.64 60.4469 1.64C61.3589 1.64 62.0069 1.568 62.3909 1.424C62.7749 1.28 63.0629 1.016 63.2549 0.631998H64.4789L66.0629 7.148L64.8389 7.472C64.3829 6.272 63.9629 5.36 63.5789 4.736C63.1949 4.112 62.7869 3.68 62.3549 3.44C61.9469 3.2 61.4189 3.08 60.7709 3.08ZM76.8627 1.64C79.0467 1.64 80.7507 2.324 81.9747 3.692C83.1987 5.036 83.8107 6.92 83.8107 9.344V21.656C83.8107 24.176 83.2107 26.096 82.0107 27.416C80.8347 28.712 79.1187 29.36 76.8627 29.36C74.5827 29.36 72.8307 28.7 71.6067 27.38C70.3827 26.036 69.7707 24.128 69.7707 21.656V9.344C69.7707 6.848 70.3707 4.94 71.5707 3.62C72.7947 2.3 74.5587 1.64 76.8627 1.64ZM76.8627 27.92C77.7267 27.92 78.4347 27.596 78.9867 26.948C79.5627 26.3 79.8507 25.472 79.8507 24.464V6.536C79.8507 5.528 79.5627 4.7 78.9867 4.052C78.4347 3.404 77.7267 3.08 76.8627 3.08C76.0227 3.08 75.3147 3.416 74.7387 4.088C74.1627 4.736 73.8747 5.552 73.8747 6.536V24.464C73.8747 25.496 74.1507 26.336 74.7027 26.984C75.2547 27.608 75.9747 27.92 76.8627 27.92ZM85.8435 27.668C86.6115 27.668 87.1635 27.548 87.4995 27.308C87.8355 27.068 88.0035 26.672 88.0035 26.12V4.88C88.0035 4.328 87.8355 3.932 87.4995 3.692C87.1635 3.452 86.6115 3.332 85.8435 3.332V2H92.1795L99.7755 19.064V4.88C99.7755 4.328 99.6075 3.932 99.2715 3.692C98.9355 3.452 98.3835 3.332 97.6155 3.332V2H103.628V3.332C102.86 3.332 102.308 3.452 101.972 3.692C101.636 3.932 101.468 4.328 101.468 4.88V29H99.7035L89.6955 6.32V26.12C89.6955 26.672 89.8635 27.068 90.1995 27.308C90.5355 27.548 91.0875 27.668 91.8555 27.668V29H85.8435V27.668ZM115.943 27.668C116.711 27.668 117.263 27.548 117.599 27.308C117.935 27.068 118.103 26.672 118.103 26.12V3.332H117.635C116.675 3.332 115.883 3.476 115.259 3.764C114.659 4.052 114.143 4.58 113.711 5.348C113.303 6.092 112.895 7.172 112.487 8.588L111.155 8.264L112.739 0.667998H113.963C114.059 1.196 114.215 1.556 114.431 1.748C114.671 1.916 115.067 2 115.619 2H124.835C125.387 2 125.783 1.904 126.023 1.712C126.263 1.52 126.419 1.172 126.491 0.667998H127.715L129.299 8.264L127.967 8.588C127.559 7.172 127.139 6.092 126.707 5.348C126.299 4.58 125.795 4.052 125.195 3.764C124.595 3.476 123.803 3.332 122.819 3.332H122.135V26.12C122.135 26.672 122.303 27.068 122.639 27.308C122.975 27.548 123.527 27.668 124.295 27.668V29H115.943V27.668ZM132.262 26.084C132.166 26.588 132.298 26.984 132.658 27.272C133.042 27.536 133.63 27.668 134.422 27.668V29H128.41V27.668C129.106 27.668 129.622 27.548 129.958 27.308C130.294 27.068 130.522 26.66 130.642 26.084L136.042 1.496H137.77L143.35 26.156C143.47 26.756 143.674 27.164 143.962 27.38C144.274 27.572 144.79 27.668 145.51 27.668V29H137.158V27.668C138.022 27.668 138.622 27.56 138.958 27.344C139.318 27.104 139.438 26.72 139.318 26.192L138.562 22.556H133.018L132.262 26.084ZM133.342 21.116H138.238L135.862 9.632L133.342 21.116ZM149.517 27.668C150.285 27.668 150.837 27.548 151.173 27.308C151.509 27.068 151.677 26.672 151.677 26.12V3.332H151.209C150.249 3.332 149.457 3.476 148.833 3.764C148.233 4.052 147.717 4.58 147.285 5.348C146.877 6.092 146.469 7.172 146.061 8.588L144.729 8.264L146.313 0.667998H147.537C147.633 1.196 147.789 1.556 148.005 1.748C148.245 1.916 148.641 2 149.193 2H158.409C158.961 2 159.357 1.904 159.597 1.712C159.837 1.52 159.993 1.172 160.065 0.667998H161.289L162.873 8.264L161.541 8.588C161.133 7.172 160.713 6.092 160.281 5.348C159.873 4.58 159.369 4.052 158.769 3.764C158.169 3.476 157.377 3.332 156.393 3.332H155.709V26.12C155.709 26.672 155.877 27.068 156.213 27.308C156.549 27.548 157.101 27.668 157.869 27.668V29H149.517V27.668ZM164.225 27.668C164.993 27.668 165.545 27.548 165.881 27.308C166.217 27.068 166.385 26.672 166.385 26.12V4.88C166.385 4.328 166.217 3.932 165.881 3.692C165.545 3.452 164.993 3.332 164.225 3.332V2H172.577V3.332C171.809 3.332 171.257 3.452 170.921 3.692C170.585 3.932 170.417 4.328 170.417 4.88V26.12C170.417 26.672 170.585 27.068 170.921 27.308C171.257 27.548 171.809 27.668 172.577 27.668V29H164.225V27.668ZM177.508 26.084C177.412 26.588 177.544 26.984 177.904 27.272C178.288 27.536 178.876 27.668 179.668 27.668V29H173.656V27.668C174.352 27.668 174.868 27.548 175.204 27.308C175.54 27.068 175.768 26.66 175.888 26.084L181.288 1.496H183.016L188.596 26.156C188.716 26.756 188.92 27.164 189.208 27.38C189.52 27.572 190.036 27.668 190.756 27.668V29H182.404V27.668C183.268 27.668 183.868 27.56 184.204 27.344C184.564 27.104 184.684 26.72 184.564 26.192L183.808 22.556H178.264L177.508 26.084ZM178.588 21.116H183.484L181.108 9.632L178.588 21.116ZM191.172 27.668C191.94 27.668 192.492 27.548 192.828 27.308C193.164 27.068 193.332 26.672 193.332 26.12V4.88C193.332 4.328 193.164 3.932 192.828 3.692C192.492 3.452 191.94 3.332 191.172 3.332V2H197.508L205.104 19.064V4.88C205.104 4.328 204.936 3.932 204.6 3.692C204.264 3.452 203.712 3.332 202.944 3.332V2H208.956V3.332C208.188 3.332 207.636 3.452 207.3 3.692C206.964 3.932 206.796 4.328 206.796 4.88V29H205.032L195.024 6.32V26.12C195.024 26.672 195.192 27.068 195.528 27.308C195.864 27.548 196.416 27.668 197.184 27.668V29H191.172V27.668ZM213.122 26.084C213.026 26.588 213.158 26.984 213.518 27.272C213.902 27.536 214.49 27.668 215.282 27.668V29H209.27V27.668C209.966 27.668 210.482 27.548 210.818 27.308C211.154 27.068 211.382 26.66 211.502 26.084L216.902 1.496H218.63L224.21 26.156C224.33 26.756 224.534 27.164 224.822 27.38C225.134 27.572 225.65 27.668 226.37 27.668V29H218.018V27.668C218.882 27.668 219.482 27.56 219.818 27.344C220.178 27.104 220.298 26.72 220.178 26.192L219.422 22.556H213.878L213.122 26.084ZM214.202 21.116H219.098L216.722 9.632L214.202 21.116ZM238.679 15.644V13.988H242.855C243.455 12.524 244.139 11.108 244.907 9.74C245.699 8.348 246.575 6.968 247.535 5.6H242.351C241.295 5.6 240.467 5.696 239.867 5.888C239.291 6.056 238.799 6.428 238.391 7.004C238.007 7.58 237.575 8.468 237.095 9.668L235.907 9.344L237.383 1.316H238.571C238.595 1.556 238.739 1.736 239.003 1.856C239.267 1.952 239.711 2 240.335 2H251.603L251.459 3.476C250.187 5.132 249.059 6.836 248.075 8.588C247.115 10.316 246.311 12.116 245.663 13.988H248.507V15.644H245.123C243.923 19.7 243.407 24.152 243.575 29H239.363C239.627 26.432 239.987 24.056 240.443 21.872C240.899 19.664 241.487 17.588 242.207 15.644H238.679Z" fill="black"/>
</svg>
